<svg xmlns="http://www.w3.org/2000/svg" xmlns:xlink="http://www.w3.org/1999/xlink" viewBox="0 0 88.7 29.49"><defs><style>.a{fill:none;}.b{clip-path:url(#a);}.c{fill:#37424a;}</style><clipPath id="a" transform="translate(-0.58 -0.89)"><rect class="a" x="-8.42" y="-0.11" width="43.78" height="27.71"/></clipPath></defs><title>myIR_logo</title><g class="b"><path class="c" d="M13.47.89a12.89,12.89,0,0,0-4.6,24.93V14.21a1.5,1.5,0,0,0-1.49-1.5H6.62V11.53H8.87c2,0,3.9-.17,5.84-.17v4.45h.09a7.18,7.18,0,0,1,6.47-4.53,3.28,3.28,0,0,1,3.51,3.51,2.93,2.93,0,0,1-3,3,2.51,2.51,0,0,1-2.67-2.55,4.21,4.21,0,0,1,.51-1.9c0-.1-.2-.22-.59-.22-.79,0-2.19.47-3.26,2.46a7,7,0,0,0-1.06,3.94v7.12A12.89,12.89,0,0,0,13.47.89M11.53,9.21A3.25,3.25,0,1,1,14.78,6a3.25,3.25,0,0,1-3.25,3.25" transform="translate(-0.58 -0.89)"/></g><path class="c" d="M34.67,23.52c0,.5-.15.61-.56.67a11.7,11.7,0,0,1-2,.12c.06-1.06.08-2.8.08-5.42v-5c0-1-.14-1.59-.5-1.82v-.12a2.4,2.4,0,0,1,1.59-1c.95,0,1.18,1.26,1.27,2.21A6.94,6.94,0,0,1,39,10.91a3.53,3.53,0,0,1,3.57,2.32,6.89,6.89,0,0,1,4.59-2.32c3,0,4.15,2.38,4.15,5.15v4.36c0,1.68.06,2.92.12,3.66a17.28,17.28,0,0,1-2.21.23c-.26,0-.38-.15-.38-.47V16.33c0-2.3-1-3.42-2.68-3.42A4.47,4.47,0,0,0,43,14.53v8.9c0,.59-.06.7-.56.76a12.17,12.17,0,0,1-2,.12c.06-1.06.09-2.8.09-5.45V16.33c0-2.3-.91-3.42-2.59-3.42a4.76,4.76,0,0,0-3.24,1.74Z" transform="translate(-0.58 -0.89)"/><path class="c" d="M53.82,29.55a36.88,36.88,0,0,0,3.94-6.06,8.37,8.37,0,0,1-.64-1.33c-.45-1.15-2.89-7.78-4.22-10.58A5.51,5.51,0,0,1,55,10.91c.39,0,.51.2.65.53.74,1.79,2.71,7.42,3.45,9.51a69.2,69.2,0,0,0,3.36-10,4.43,4.43,0,0,1,1.53.26c.44.18.5.44.35,1.06A67,67,0,0,1,60.77,22c-1.94,4.24-4.69,8.37-5.22,8.37a2.41,2.41,0,0,1-1.73-.74Z" transform="translate(-0.58 -0.89)"/><path class="c" d="M67.46,9.74c0-2,0-3.18-.09-3.73.59-.09,2.94-.24,3.61-.24s.68.3.68,1.65V20.58c0,2.05.06,3,.09,3.61a27.74,27.74,0,0,1-3.58.23c-.5,0-.71-.09-.71-.59Z" transform="translate(-0.58 -0.89)"/><path class="c" d="M78.83,23.54c0,.59-.21.71-.71.77-.85.08-2.79.11-3.46.11,0-1.17.08-2.9.08-5.37V9.18c0-1.44,0-2.15,0-2.94A40.34,40.34,0,0,1,80,5.71c5,0,7.29,1.74,7.29,5.35,0,2.73-2.29,4-3.47,4.61a17.84,17.84,0,0,1,2.5,3.82,25.07,25.07,0,0,0,3,4.55v.12a8,8,0,0,1-2.67.32,3,3,0,0,1-2.79-1.23,28,28,0,0,1-2.55-4.67c-.8-1.59-1.39-1.71-2-1.71a2.8,2.8,0,0,0-.41,0Zm0-9a7.59,7.59,0,0,0,2.64-.2A3,3,0,0,0,83,11.44a3,3,0,0,0-3.12-3.29,5.82,5.82,0,0,0-1,.06Z" transform="translate(-0.58 -0.89)"/></svg>