<svg xmlns="http://www.w3.org/2000/svg" viewBox="0 0 100 100"><defs><style>.a{fill:#09606a;}.b{fill:#fff;}</style></defs><title>picto-myIR</title><circle class="a" cx="50" cy="50" r="50"/><path class="b" d="M40.77,57.09c0,.45-.14.55-.5.6a10.88,10.88,0,0,1-1.8.11c.05-.95.07-2.51.07-4.87V48.44c0-.89-.12-1.42-.45-1.63V46.7a2.2,2.2,0,0,1,1.43-.9c.85,0,1.06,1.14,1.14,2a6.2,6.2,0,0,1,4-2,3.17,3.17,0,0,1,3.2,2.08A6.17,6.17,0,0,1,52,45.77c2.7,0,3.73,2.13,3.73,4.62v3.92c0,1.5,0,2.62.11,3.28a16.57,16.57,0,0,1-2,.21c-.23,0-.34-.14-.34-.42V50.63c0-2.06-.9-3.07-2.41-3.07A4,4,0,0,0,48.25,49v8c0,.53-.06.63-.51.68A10.69,10.69,0,0,1,46,57.8c0-.95.08-2.51.08-4.89V50.63c0-2.06-.82-3.07-2.33-3.07a4.26,4.26,0,0,0-2.9,1.57Z"/><path class="b" d="M58,62.5a32.54,32.54,0,0,0,3.54-5.44,6.83,6.83,0,0,1-.57-1.19c-.41-1-2.6-7-3.79-9.5a4.82,4.82,0,0,1,1.88-.6c.35,0,.46.18.59.47.66,1.61,2.43,6.67,3.09,8.54a61.53,61.53,0,0,0,3-9,4,4,0,0,1,1.37.24c.4.16.45.39.32,1a60.6,60.6,0,0,1-3.21,8.74c-1.74,3.8-4.21,7.51-4.68,7.51A2.18,2.18,0,0,1,58,62.58Z"/><path class="b" d="M70.21,44.72a30.79,30.79,0,0,0-.08-3.35c.53-.08,2.64-.22,3.24-.22s.61.27.61,1.48V54.45c0,1.84,0,2.69.08,3.24a24.72,24.72,0,0,1-3.21.21c-.45,0-.64-.08-.64-.53Z"/><path class="b" d="M80.42,57.11c0,.53-.19.64-.64.69-.76.07-2.51.1-3.11.1,0-1,.08-2.61.08-4.82V41.58a33.85,33.85,0,0,1,4.72-.48C86,41.1,88,42.66,88,45.9,88,48.35,86,49.49,84.9,50a16.2,16.2,0,0,1,2.24,3.43,22.27,22.27,0,0,0,2.7,4.09v.1a7.22,7.22,0,0,1-2.4.29,2.7,2.7,0,0,1-2.51-1.1,25.48,25.48,0,0,1-2.29-4.2c-.71-1.42-1.24-1.53-1.79-1.53h-.37Zm0-8.08a6.78,6.78,0,0,0,2.37-.18,2.7,2.7,0,0,0,1.37-2.61,2.69,2.69,0,0,0-2.42-2.94,2.38,2.38,0,0,0-.38,0,5.43,5.43,0,0,0-.9.05Z"/><path class="b" d="M21.73,36.77A11.57,11.57,0,0,0,17.6,59.15V48.73a1.35,1.35,0,0,0-1.33-1.35h-.69V46.32h2c1.8,0,3.51-.15,5.25-.15v4h.08a6.43,6.43,0,0,1,5.81-4.07,2.94,2.94,0,0,1,3.15,2.72,3.08,3.08,0,0,1,0,.43A2.64,2.64,0,0,1,29.32,52H29.2a2.27,2.27,0,0,1-2.4-2.11v-.18A3.64,3.64,0,0,1,27.26,48c0-.09-.18-.2-.53-.2-.71,0-2,.42-2.93,2.21a6.31,6.31,0,0,0-.95,3.54v6.39a11.57,11.57,0,0,0-1.12-23.12M20,44.24a2.92,2.92,0,1,1,2.92-2.92v0A2.92,2.92,0,0,1,20,44.28"/></svg>