<svg xmlns="http://www.w3.org/2000/svg" viewBox="0 0 58 71"><defs><style>.a{fill:#0d8390;}.b{fill:#37424a;}.c{fill:none;stroke:#37424a;stroke-miterlimit:10;stroke-width:3px;}</style></defs><title>picto-paper-sheet</title><rect class="a" x="7.5" y="51.5" width="43" height="3" rx="1.5"/><rect class="a" x="7.5" y="57.5" width="23.45" height="3" rx="1.5"/><path class="b" d="M20.35,40.5v2.3h-2.8V40.5a9.71,9.71,0,0,1-6.05-2.59l2.29-3.25a7.64,7.64,0,0,0,5.37,2.21c1.49,0,2.4-.63,2.4-1.43,0-1-1.09-1.34-2.88-1.72C15.91,33.17,12,32.46,12,28.48c0-2.55,2-4.79,5.52-5.19V20.92h2.8v2.39a9.87,9.87,0,0,1,5.21,2.25l-2.37,3.1a7.8,7.8,0,0,0-4.73-1.74c-1.44,0-2,.58-2,1.31s1,1.18,2.89,1.54C22.14,30.35,26,31.15,26,35,26,38,24,40.07,20.35,40.5Z"/><path class="c" d="M56.5,30v36a3.57,3.57,0,0,1-3.56,3.56H5.06A3.57,3.57,0,0,1,1.5,65.94V5.06A3.57,3.57,0,0,1,5.06,1.5H33.49a7.72,7.72,0,0,1,3.76,1h0A7.64,7.64,0,0,1,39,3.76L54.24,19a7.73,7.73,0,0,1,2.26,5.47V59.77"/><polygon class="b" points="35.5 19.5 35.5 2 32.5 2 32.5 20.07 32.5 21 32.5 22.5 56 22.5 56 19.5 35.5 19.5"/></svg>