<svg xmlns="http://www.w3.org/2000/svg" width="100" height="100">
    <defs>
        <style>
            .cls-2{fill:#c3e0e3}.cls-3{fill:#0d6f7c}
        </style>
    </defs>
    <g id="icon-condition" transform="translate(-494 -714)">
        <rect id="Rectangle_1143" data-name="Rectangle 1143" width="100" height="100" rx="50" transform="translate(494 714)" style="fill:#fff"/>
        <g id="Group_3006" data-name="Group 3006" transform="translate(-175.94 518.796)">
            <g id="Group_3004" data-name="Group 3004" transform="translate(703.392 223.224)">
                <path id="Path_5980" data-name="Path 5980" class="cls-2" d="M733.171 257.444c0-1.211.825-2.3 3.873-3.989 1.577-.874 4.237-1.919 4.666-5.014.368-2.651-2.76-4.724-4.358-4.724a5.9 5.9 0 0 0-2.2.35 2.712 2.712 0 0 1 1.98 2.724c0 1.16-.3 1.609-3.036 3.025-3.092 1.61-5.758 3-5.758 7.286a3.9 3.9 0 0 0 3.89 3.89h1.308s1.254-.423.64-.954a2.939 2.939 0 0 1-1.005-2.594z" transform="translate(-720.688 -235.89)"/>
                <path id="Path_5981" data-name="Path 5981" class="cls-2" d="M718.986 240.465a4.039 4.039 0 0 1-.586-3.655c1.42-4.392 5.044-7.241 9.9-7.907a17.378 17.378 0 0 0-2.246-.152c-5.975 0-10.516 3.013-12.148 8.059a4.039 4.039 0 0 0 .586 3.655 4.117 4.117 0 0 0 3.318 1.691 4.04 4.04 0 0 0 2.235-.682 4.1 4.1 0 0 1-1.059-1.009z" transform="translate(-713.704 -228.751)"/>
            </g>
            <g id="Group_3005" data-name="Group 3005" transform="translate(692.087 217.164)">
                <path id="Path_5982" data-name="Path 5982" class="cls-2" d="m781.185 300.762-11.07-11.07a23.952 23.952 0 0 1-4.424 4.552L776.7 305.25a3.174 3.174 0 0 0 4.488-4.488z" transform="translate(-727.199 -251.763)"/>
                <path id="Path_5983" data-name="Path 5983" class="cls-3" d="M715.875 218.733a22.219 22.219 0 1 1-22.219 22.219 22.245 22.245 0 0 1 22.219-22.219m0-1.569a23.788 23.788 0 1 0 23.788 23.788 23.788 23.788 0 0 0-23.788-23.788z" transform="translate(-692.087 -217.164)"/>
                <path id="Path_5984" data-name="Path 5984" class="cls-3" d="m783.043 298.98-10.566-10.566q-.451.654-.945 1.274l10.4 10.4a2.456 2.456 0 1 1-3.474 3.474l-7.7-7.7-1.11 1.109 7.7 7.7a4.026 4.026 0 0 0 5.693-5.693z" transform="translate(-729.09 -251.153)"/>
            </g>
            <path id="Path_5985" data-name="Path 5985" class="cls-2" d="M734.361 285.236a3.4 3.4 0 0 0-.837-2.267 4.059 4.059 0 0 0-.547-.041 3.468 3.468 0 0 0-3.625 3.461 3.335 3.335 0 0 0 .831 2.233 4.125 4.125 0 0 0 .586.045 3.4 3.4 0 0 0 3.592-3.431z" transform="translate(-17.777 -31.372)"/>
            <path id="Path_5986" data-name="Path 5986" class="cls-3" d="M732.577 281.534a4.532 4.532 0 0 0-4.685 4.686 4.707 4.707 0 1 0 4.685-4.686zm0 7.848a3.062 3.062 0 0 1-3.19-3.162 3.026 3.026 0 0 1 3.19-3.12 3.061 3.061 0 0 1 3.233 3.12 3.1 3.1 0 0 1-3.233 3.162z" transform="translate(-17.08 -30.707)"/>
            <path id="Path_5987" data-name="Path 5987" class="cls-3" d="M725.8 228.751c-5.975 0-10.516 3.013-12.148 8.059a4.039 4.039 0 0 0 .586 3.655 4.1 4.1 0 0 0 7.25-1.265c.561-1.839 1.8-2.624 4.133-2.624 1.6 0 4.279.4 4.279 3.073 0 1.16-.3 1.609-3.036 3.025-3.092 1.61-5.758 3-5.758 7.286a3.9 3.9 0 0 0 3.89 3.89h1.439c.879 0 1.33-1.569-.535-1.569h-.9a2.321 2.321 0 0 1-2.321-2.321c0-3.214 1.651-4.2 4.911-5.893 2.589-1.339 3.883-2.189 3.883-4.418 0-2.679-1.92-4.642-5.848-4.642-2.622 0-4.772.91-5.634 3.735a2.556 2.556 0 0 1-2.431 1.844 2.528 2.528 0 0 1-2.411-3.294c1.509-4.666 5.611-6.973 10.655-6.973 6.2 0 10.758 3.438 10.758 9.2 0 4.375-2.678 6.115-6.071 7.9a.757.757 0 0 0-.073.942.912.912 0 0 0 1.174.248c3.482-1.865 6.539-4.044 6.539-9.091.001-6.441-4.953-10.767-12.331-10.767z" transform="translate(-10.194 -5.527)"/>
        </g>
    </g>
</svg>
