<?xml version="1.0" encoding="utf-8"?>
<!-- Generator: Adobe Illustrator 19.1.0, SVG Export Plug-In . SVG Version: 6.00 Build 0)  -->
<svg version="1.1" id="Layer_1" xmlns="http://www.w3.org/2000/svg" xmlns:xlink="http://www.w3.org/1999/xlink" x="0px" y="0px"
	 viewBox="-192.4 397.9 46.4 45.9" style="enable-background:new -192.4 397.9 46.4 45.9;" xml:space="preserve">
<path id="Rounded_Rectangle_7" d="M-191.5,438.6l11.8-11.8c1.2-1.1,3.1-1.1,4.2,0.1c1.1,1.2,1.1,3,0,4.1l-11.8,11.8
	c-1.1,1.2-3,1.2-4.2,0.1C-192.7,441.8-192.7,439.9-191.5,438.6C-191.5,438.7-191.5,438.7-191.5,438.6z"/>
<path d="M-151,402.9c-6.6-6.6-17.4-6.6-24,0c-6.6,6.6-6.6,17.4,0,24c0,0,0,0,0,0c6.6,6.6,17.4,6.6,24,0S-144.4,409.5-151,402.9z
	 M-153.1,424.8c-5.5,5.5-14.3,5.5-19.8,0c-5.5-5.5-5.5-14.3,0-19.8c0,0,0,0,0,0c5.5-5.5,14.3-5.5,19.8,0S-147.6,419.3-153.1,424.8z"
	/>
</svg>
