<svg xmlns="http://www.w3.org/2000/svg" width="100" height="100">
    <defs>
        <style>
            .cls-2{fill:#c3e0e3}.cls-3{fill:#0d6f7c}
        </style>
    </defs>
    <g id="Group_3088" data-name="Group 3088" transform="translate(-494 -1192.346)">
        <rect id="Rectangle_1143" data-name="Rectangle 1143" width="100" height="100" rx="50" transform="translate(494 1192.346)" style="fill:#fff"/>
        <g id="Group_3014" data-name="Group 3014" transform="translate(149.693 1144.888)">
            <g id="Group_3010" data-name="Group 3010" transform="translate(361.56 102.12)">
                <path id="Path_5989" data-name="Path 5989" class="cls-2" d="m431.079 147-16.04 7.874-6.661 2.6h-1.3v-.374a4.742 4.742 0 0 0 2.685-2.837h-14.846a12.209 12.209 0 0 0-5.421-1.267 10.541 10.541 0 0 0-6.725 2.527l-10.818 10.235 4.067 4.3 4.7-4.444h22.81v-.473l1.587-.473 7.667-3.912 16.336-8.019c1.349-1.037 2.154-3.265 1.959-5.737z" transform="translate(-366.8 -143.679)"/>
                <g id="Group_3009" data-name="Group 3009">
                    <path id="Path_5990" data-name="Path 5990" class="cls-3" d="M378.7 148.386c3.164 0 4.785 1.362 6.167 1.362h15.392a3.474 3.474 0 0 1 3.484 2.948 3.4 3.4 0 0 1-3.366 3.841h-12.14v1.488H400.2a5 5 0 0 0 5.043-4.548 4.887 4.887 0 0 0-4.871-5.216h-15.324a5.169 5.169 0 0 1-1.971-.471 11.629 11.629 0 0 0-4.277-.79c-2.131 0-4.8.612-5.9 1.637l-11.34 10.548.974 1.126 11.381-10.589a7.646 7.646 0 0 1 4.785-1.336z" transform="translate(-361.56 -143.679)"/>
                    <path id="Path_5991" data-name="Path 5991" class="cls-3" d="M435.088 142.927a4.887 4.887 0 0 0-6.588-2.069l-11.445 5.975.808 1.257 11.326-5.913a3.395 3.395 0 1 1 3.141 6.019l-23.889 12.471-.109.069a3.36 3.36 0 0 1-2.063.7h-21.945l-4.935 4.592.973 1.126 4.547-4.23h21.36a4.832 4.832 0 0 0 2.915-.97l23.835-12.442a4.888 4.888 0 0 0 2.069-6.585z" transform="translate(-370.548 -140.305)"/>
                </g>
            </g>
            <g id="Group_3013" data-name="Group 3013" transform="translate(374.625 64.562)">
                <g id="Group_3011" data-name="Group 3011" transform="translate(10.125 9.965)">
                    <path id="Path_5992" data-name="Path 5992" class="cls-2" d="M408.328 95.473a10.8 10.8 0 0 0 5 9.117v3.78h4.44l1.454-4.363a11.348 11.348 0 0 0 .079-19.344h-.161a10.814 10.814 0 0 0-10.812 10.81z" transform="translate(-408.328 -84.659)"/>
                </g>
                <g id="Group_3012" data-name="Group 3012">
                    <path id="Path_5993" data-name="Path 5993" class="cls-3" d="M418.124 138.8h-5.962a.744.744 0 0 0 0 1.488h5.962a.744.744 0 1 0 0-1.488z" transform="translate(-399.761 -101.991)"/>
                    <path id="Path_5994" data-name="Path 5994" class="cls-3" d="M389.178 77.586a.744.744 0 1 0-1.052 1.052l2.53 2.53a.744.744 0 1 0 1.052-1.052z" transform="translate(-387.908 -71.018)"/>
                    <path id="Path_5995" data-name="Path 5995" class="cls-3" d="M445.109 77.586a.743.743 0 0 0-1.052 0l-2.53 2.53a.744.744 0 0 0 1.052 1.052l2.53-2.53a.743.743 0 0 0 0-1.052z" transform="translate(-414.83 -71.018)"/>
                    <path id="Path_5996" data-name="Path 5996" class="cls-3" d="M418.034 69.282a.744.744 0 0 0 .744-.744v-3.232a.744.744 0 1 0-1.488 0v3.233a.743.743 0 0 0 .744.743z" transform="translate(-402.721 -64.562)"/>
                    <path id="Path_5997" data-name="Path 5997" class="cls-3" d="M407.232 81.419a11.348 11.348 0 0 0-5.845 21.075l1.528 4.334h8.757l1.454-4.364a11.348 11.348 0 0 0-5.895-21.045zm5.121 19.774-.465.284-.172.517-1.116 3.346h-2.624v-8.962l3.047-3.047a.744.744 0 0 0-1.052-1.052l-2.734 2.734-2.737-2.734a.744.744 0 0 0-1.052 1.052l3.037 3.037v8.972h-2.52L402.79 102l-.178-.5-.458-.276a9.859 9.859 0 1 1 10.2-.026z" transform="translate(-391.93 -73.06)"/>
                </g>
            </g>
        </g>
    </g>
</svg>
