<svg xmlns="http://www.w3.org/2000/svg" viewBox="0 0 283.46 123.53"><defs><style>.a{fill:#57652d;}.b{fill:#b5ac7e;}</style></defs><title>0Asset 1</title><path class="a" d="M107.42,55.47a3.3,3.3,0,1,0-3.3-3.3,3.29,3.29,0,0,0,3.3,3.3"/><path class="a" d="M44,55.47a3.3,3.3,0,1,0-3.3-3.3,3.3,3.3,0,0,0,3.3,3.3"/><rect class="a" x="40.65" y="60.03" width="6.24" height="34.38"/><polygon class="a" points="60.79 94.41 50.95 60.03 57.06 60.03 64.59 86.65 72.73 60.03 78.96 60.03 86.09 86.65 94.73 60.03 100.08 60.03 88.87 94.41 82.61 94.41 75.32 67.78 67.09 94.41 60.79 94.41"/><rect class="a" x="104.18" y="60.03" width="6.24" height="34.38"/><path class="a" d="M283.46,20.87v-2C252.11,2.5,193.39-4.63,135.43,3.16,76.24,11.11,32,32.59,6.56,57.32v-12H0V94.62H6.56v-25l21.55,25H37l-26.51-30C35,39.41,79.64,17.24,138.11,7.82,195.44-1.43,252.2,5.31,283.46,20.87"/><path class="a" d="M260.19,117.45a2.5,2.5,0,0,0,1.36.37,3.52,3.52,0,0,0,3.64-2.75c.11-.47.22-1,.35-1.47h0a2.48,2.48,0,0,1-1,.39,10.67,10.67,0,0,1-1.23.18c-.43,0-.87.09-1.31.16a5.05,5.05,0,0,0-1.19.3,2.15,2.15,0,0,0-.86.6,1.63,1.63,0,0,0-.36,1.08,1.27,1.27,0,0,0,.6,1.14M259.7,110a3.83,3.83,0,0,1,1.06-1.1,4.25,4.25,0,0,1,1.43-.65,6.43,6.43,0,0,1,1.65-.21,9.18,9.18,0,0,1,1.52.12,4.08,4.08,0,0,1,1.26.44,2.53,2.53,0,0,1,.87.85,2.66,2.66,0,0,1,.32,1.36,5.26,5.26,0,0,1-.11,1c-.08.35-.16.68-.23,1l-.69,3q-.06.33-.18.75a3.34,3.34,0,0,0-.11.8.8.8,0,0,0,.14.53.56.56,0,0,0,.38.14.8.8,0,0,0,.29,0l.28-.09-.27,1.32a4.61,4.61,0,0,1-.54.16,2.51,2.51,0,0,1-.56.07,1.44,1.44,0,0,1-1.11-.4,1.29,1.29,0,0,1-.29-1.11l-.05,0a3.74,3.74,0,0,1-1.41,1.15,5.16,5.16,0,0,1-2.22.4,4.87,4.87,0,0,1-1.3-.16,2.68,2.68,0,0,1-1-.52,2.62,2.62,0,0,1-.7-1,3.34,3.34,0,0,1-.26-1.42,3,3,0,0,1,.51-1.86,3.19,3.19,0,0,1,1.32-1,6.79,6.79,0,0,1,1.76-.48l1.87-.21c.48,0,.89-.08,1.24-.13a3,3,0,0,0,.85-.24,1.11,1.11,0,0,0,.49-.49A1.86,1.86,0,0,0,266,111a1.13,1.13,0,0,0-.21-.71,1.48,1.48,0,0,0-.53-.43,2.21,2.21,0,0,0-.7-.22,4,4,0,0,0-.75-.07,4.77,4.77,0,0,0-1,.11,2.59,2.59,0,0,0-.89.35,2.32,2.32,0,0,0-.68.6,2,2,0,0,0-.35.9h-1.79a3.68,3.68,0,0,1,.56-1.57m-11.34,5.85a3,3,0,0,0,.49.93,2.53,2.53,0,0,0,.83.64,2.73,2.73,0,0,0,1.18.24,3.08,3.08,0,0,0,1.75-.5,4.29,4.29,0,0,0,1.23-1.28,6.28,6.28,0,0,0,.73-1.7,6.79,6.79,0,0,0,.24-1.73,3,3,0,0,0-.68-2.06,2.65,2.65,0,0,0-2.09-.78,2.72,2.72,0,0,0-1.66.53,4.62,4.62,0,0,0-1.2,1.29,6.5,6.5,0,0,0-1,3.31,3.68,3.68,0,0,0,.17,1.11m6.85,3.33a13,13,0,0,1-.44,1.33,4.6,4.6,0,0,1-1.93,2.33,6,6,0,0,1-3,.7,7,7,0,0,1-1.61-.19,4.41,4.41,0,0,1-1.36-.59,3.3,3.3,0,0,1-1-1,3.23,3.23,0,0,1-.39-1.55h1.77a1.74,1.74,0,0,0,.28.9,1.67,1.67,0,0,0,.61.54,2.43,2.43,0,0,0,.85.27,6.4,6.4,0,0,0,1,.08,3.41,3.41,0,0,0,1.69-.38,3.21,3.21,0,0,0,1.08-1,5,5,0,0,0,.66-1.39q.24-.8.45-1.59l0,0a3.29,3.29,0,0,1-1.47,1.26,4.86,4.86,0,0,1-1.91.38,4.49,4.49,0,0,1-1.78-.33,3.28,3.28,0,0,1-1.27-.92,4.12,4.12,0,0,1-.76-1.42,6,6,0,0,1-.26-1.81,7.71,7.71,0,0,1,.39-2.39,7.31,7.31,0,0,1,1.11-2.15,5.92,5.92,0,0,1,1.78-1.56,4.79,4.79,0,0,1,2.37-.59,4.52,4.52,0,0,1,1.17.15,5,5,0,0,1,1,.44,2.8,2.8,0,0,1,.79.7,2.22,2.22,0,0,1,.45.91v0h.05l.33-2h1.68l-1.95,9.28c-.13.56-.26,1.1-.4,1.61m-17-10.89-.33,1.64h0a4.11,4.11,0,0,1,1.7-1.42,5,5,0,0,1,2.16-.47,3.32,3.32,0,0,1,2.28.67,2.74,2.74,0,0,1,.74,2.12,7.45,7.45,0,0,1-.08.92c-.06.38-.14.78-.23,1.2l-1.33,6.2h-1.78l1.39-6.34a3.1,3.1,0,0,1,.06-.39c0-.15.06-.3.09-.47s0-.31.07-.46a2.73,2.73,0,0,0,0-.36,1.3,1.3,0,0,0-.54-1.15,2.43,2.43,0,0,0-1.35-.37,3.24,3.24,0,0,0-1.46.36,4.35,4.35,0,0,0-1.23.9,2.94,2.94,0,0,0-.75,1,7.75,7.75,0,0,0-.45,1.25l-1.26,6H234.2l2.27-10.86Zm-12.63,9.17a2.49,2.49,0,0,0,1.35.37,3.33,3.33,0,0,0,3.05-1.43,3.3,3.3,0,0,0,.6-1.32c.11-.47.22-1,.35-1.47h0a2.48,2.48,0,0,1-1,.39,10.67,10.67,0,0,1-1.23.18c-.43,0-.87.09-1.31.16a5.05,5.05,0,0,0-1.19.3,2.15,2.15,0,0,0-.86.6,1.63,1.63,0,0,0-.36,1.08,1.27,1.27,0,0,0,.6,1.14m-.49-7.46a3.83,3.83,0,0,1,1.06-1.1,4.25,4.25,0,0,1,1.43-.65,6.43,6.43,0,0,1,1.65-.21,9.18,9.18,0,0,1,1.52.12,4.08,4.08,0,0,1,1.26.44,2.42,2.42,0,0,1,.86.85,2.56,2.56,0,0,1,.33,1.36,4.61,4.61,0,0,1-.12,1c-.07.35-.15.68-.22,1l-.69,3q-.06.33-.18.75a3.34,3.34,0,0,0-.11.8.8.8,0,0,0,.14.53.56.56,0,0,0,.38.14.72.72,0,0,0,.28,0l.29-.09-.27,1.32a5.28,5.28,0,0,1-.54.16,2.51,2.51,0,0,1-.56.07,1.44,1.44,0,0,1-1.11-.4,1.29,1.29,0,0,1-.3-1.11l0,0a3.74,3.74,0,0,1-1.41,1.15,5.17,5.17,0,0,1-2.23.4,4.85,4.85,0,0,1-1.29-.16,2.68,2.68,0,0,1-1-.52,2.62,2.62,0,0,1-.7-1,3.33,3.33,0,0,1-.27-1.42,3,3,0,0,1,.52-1.86,3.22,3.22,0,0,1,1.31-1,7,7,0,0,1,1.77-.48l1.87-.21c.48,0,.89-.08,1.23-.13a3,3,0,0,0,.86-.24,1.16,1.16,0,0,0,.49-.49,2,2,0,0,0,.16-.86,1.13,1.13,0,0,0-.21-.71,1.48,1.48,0,0,0-.53-.43,2.21,2.21,0,0,0-.7-.22,4,4,0,0,0-.75-.07,4.69,4.69,0,0,0-1,.11,2.73,2.73,0,0,0-.9.35,2.41,2.41,0,0,0-.67.6,2.13,2.13,0,0,0-.36.9h-1.78a3.68,3.68,0,0,1,.56-1.57m-4.84-1.71-.52,2.33h0a6,6,0,0,1,1.6-1.85,3.82,3.82,0,0,1,2.35-.73,1.55,1.55,0,0,0,.31,0,.91.91,0,0,1,.32,0l-.42,1.91a1,1,0,0,0-.28,0h-.79a2,2,0,0,0-.53.09,3.43,3.43,0,0,0-1.31.65,4.62,4.62,0,0,0-1,1.11,4.49,4.49,0,0,0-.57,1.23q-.21.7-.33,1.32l-1,4.81H216.3l2.25-10.86Zm-18.42,1.16a9,9,0,0,1,1.63-2.91,7.9,7.9,0,0,1,2.59-2,7.72,7.72,0,0,1,3.44-.74,6.48,6.48,0,0,1,2.62.51,5.64,5.64,0,0,1,2,1.41,6.16,6.16,0,0,1,1.24,2.11,7.67,7.67,0,0,1,.43,2.6,10.49,10.49,0,0,1-.56,3.4,9.06,9.06,0,0,1-1.59,2.9,7.71,7.71,0,0,1-2.54,2,7.45,7.45,0,0,1-3.37.74,6.36,6.36,0,0,1-4.76-1.71,6.65,6.65,0,0,1-1.67-4.84,10.48,10.48,0,0,1,.57-3.47m1.71,5.47a4.07,4.07,0,0,0,.82,1.54,3.66,3.66,0,0,0,1.37,1,4.86,4.86,0,0,0,2,.36,5.19,5.19,0,0,0,2.62-.65,6.08,6.08,0,0,0,1.9-1.7,7.62,7.62,0,0,0,1.15-2.38,9.36,9.36,0,0,0,.39-2.66,6.88,6.88,0,0,0-.27-2,4.47,4.47,0,0,0-.82-1.56,4,4,0,0,0-1.33-1.05,4.12,4.12,0,0,0-1.84-.39,5.44,5.44,0,0,0-2.73.66,6.19,6.19,0,0,0-1.94,1.72,7.35,7.35,0,0,0-1.17,2.38,9.58,9.58,0,0,0-.39,2.7,6.93,6.93,0,0,0,.28,2m-11.65-3.37a2.63,2.63,0,0,0-.42-1,2.18,2.18,0,0,0-.81-.69,2.61,2.61,0,0,0-1.24-.27,3.88,3.88,0,0,0-1.4.24,3.71,3.71,0,0,0-1.08.67,3.83,3.83,0,0,0-.77,1,6,6,0,0,0-.51,1.19h6.3a3.89,3.89,0,0,0-.07-1.13m-6.55,3.65a2.57,2.57,0,0,0,.23,1.13,2.23,2.23,0,0,0,.63.82,2.82,2.82,0,0,0,.9.5,3.13,3.13,0,0,0,1,.18,3.42,3.42,0,0,0,2-.53,3.14,3.14,0,0,0,1.16-1.55H193a4.65,4.65,0,0,1-.67,1.59,4.42,4.42,0,0,1-1.11,1.13,4.83,4.83,0,0,1-1.45.68,6.14,6.14,0,0,1-1.68.23,5.47,5.47,0,0,1-2.24-.41,3.78,3.78,0,0,1-2.15-2.46,5.56,5.56,0,0,1-.21-1.48,8.69,8.69,0,0,1,.46-2.85,6.83,6.83,0,0,1,1.22-2.21,5.41,5.41,0,0,1,1.78-1.43,4.69,4.69,0,0,1,2.13-.5,4.42,4.42,0,0,1,3.5,1.26,6.1,6.1,0,0,1,1,4.35c0,.25-.08.45-.1.6h-8.18a7.46,7.46,0,0,0-.06,1m-8.81-11.06-1.28,5.74,0,0a4.21,4.21,0,0,1,1.7-1.41,5.08,5.08,0,0,1,2.17-.47,3.28,3.28,0,0,1,2.27.67,2.71,2.71,0,0,1,.75,2.12,6.1,6.1,0,0,1-.09.92,12,12,0,0,1-.23,1.2l-1.33,6.2h-1.77l1.38-6.34c0-.12,0-.25.07-.39s.05-.3.08-.47,0-.31.07-.46a2.73,2.73,0,0,0,0-.36,1.3,1.3,0,0,0-.54-1.15,2.41,2.41,0,0,0-1.35-.37A3.2,3.2,0,0,0,177,110a4.08,4.08,0,0,0-1.23.9,2.85,2.85,0,0,0-.76,1,7.72,7.72,0,0,0-.44,1.25l-1.26,6h-1.77l3.15-15Zm-19.42,13.32a2.53,2.53,0,0,0,1.36.37,3.34,3.34,0,0,0,3.05-1.43,3.59,3.59,0,0,0,.6-1.32c.1-.47.22-1,.34-1.47h0a2.5,2.5,0,0,1-1,.39,11.36,11.36,0,0,1-1.23.18c-.44,0-.88.09-1.32.16a5.05,5.05,0,0,0-1.19.3,2.22,2.22,0,0,0-.86.6,1.74,1.74,0,0,0-.36,1.08,1.27,1.27,0,0,0,.6,1.14M156.6,110a4,4,0,0,1,1.06-1.1,4.34,4.34,0,0,1,1.43-.65,6.51,6.51,0,0,1,1.66-.21,9.15,9.15,0,0,1,1.51.12,3.91,3.91,0,0,1,1.26.44,2.53,2.53,0,0,1,.87.85,2.56,2.56,0,0,1,.32,1.36,4.56,4.56,0,0,1-.11,1c-.08.35-.15.68-.22,1l-.69,3c-.05.22-.1.47-.18.75a2.93,2.93,0,0,0-.12.8.75.75,0,0,0,.15.53.54.54,0,0,0,.38.14.76.76,0,0,0,.28,0l.28-.09-.27,1.32a5,5,0,0,1-.53.16,2.58,2.58,0,0,1-.56.07A1.46,1.46,0,0,1,162,119a1.29,1.29,0,0,1-.29-1.11l0,0a3.74,3.74,0,0,1-1.41,1.15,5.17,5.17,0,0,1-2.23.4,4.85,4.85,0,0,1-1.29-.16,2.55,2.55,0,0,1-1.75-1.47,3.5,3.5,0,0,1-.26-1.42,3,3,0,0,1,.51-1.86,3.32,3.32,0,0,1,1.32-1,6.76,6.76,0,0,1,1.77-.48l1.87-.21c.48,0,.89-.08,1.23-.13a2.87,2.87,0,0,0,.85-.24,1.13,1.13,0,0,0,.5-.49,2,2,0,0,0,.15-.86,1.13,1.13,0,0,0-.21-.71,1.45,1.45,0,0,0-.52-.43,2.27,2.27,0,0,0-.71-.22,3.78,3.78,0,0,0-.74-.07,4.79,4.79,0,0,0-1,.11,2.59,2.59,0,0,0-.89.35,2.28,2.28,0,0,0-.67.6,2,2,0,0,0-.36.9H156a3.81,3.81,0,0,1,.56-1.57m-6.46,9.15.34-1.64h0a4.21,4.21,0,0,1-1.7,1.41,5.22,5.22,0,0,1-2.17.46,3.33,3.33,0,0,1-2.27-.66,2.68,2.68,0,0,1-.75-2.11,6.22,6.22,0,0,1,.09-.93,12,12,0,0,1,.23-1.2l1.32-6.19H147l-1.38,6.35a3.1,3.1,0,0,0-.09.38c0,.15-.05.31-.08.47s0,.31-.07.46,0,.27,0,.37a1.31,1.31,0,0,0,.55,1.15,2.37,2.37,0,0,0,1.34.36,3.4,3.4,0,0,0,1.4-.29,4,4,0,0,0,1.14-.79,4.88,4.88,0,0,0,.86-1.14,5,5,0,0,0,.49-1.31l1.26-6h1.78l-2.28,10.86ZM134.08,117a2.89,2.89,0,0,0,2.23.82,3,3,0,0,0,1.73-.5,4.62,4.62,0,0,0,1.26-1.27,5.93,5.93,0,0,0,.78-1.67,6.35,6.35,0,0,0,.26-1.71,4,4,0,0,0-.17-1.2,2.48,2.48,0,0,0-1.41-1.62,3,3,0,0,0-1.27-.25,3.22,3.22,0,0,0-1.81.51,4.49,4.49,0,0,0-1.3,1.27,5.69,5.69,0,0,0-.79,1.69,6.32,6.32,0,0,0-.26,1.77,3.07,3.07,0,0,0,.75,2.16M132,112.29a6.79,6.79,0,0,1,1.2-2.18,5.9,5.9,0,0,1,1.91-1.52,5.56,5.56,0,0,1,2.55-.56,4.59,4.59,0,0,1,3.36,1.14,4.51,4.51,0,0,1,1.15,3.35,8.16,8.16,0,0,1-.4,2.56,6.55,6.55,0,0,1-1.17,2.2,5.82,5.82,0,0,1-1.89,1.52,5.49,5.49,0,0,1-2.54.57,5.09,5.09,0,0,1-1.92-.34,4,4,0,0,1-1.44-.93,4.14,4.14,0,0,1-.9-1.43,5.08,5.08,0,0,1-.32-1.82,8.21,8.21,0,0,1,.41-2.56m-5.2-8.16a4.79,4.79,0,0,1,3.31,1,4,4,0,0,1,1.14,3.11,4.93,4.93,0,0,1-.27,1.52,4.07,4.07,0,0,1-.94,1.55,5,5,0,0,1-1.76,1.19,7.13,7.13,0,0,1-2.76.47H121l-1.31,6.13h-2l3.13-15Zm-.87,7.19a3.32,3.32,0,0,0,2.48-.85,3,3,0,0,0,.84-2.19,2.92,2.92,0,0,0-.2-1.17,2,2,0,0,0-.53-.75,2.09,2.09,0,0,0-.78-.41,3.21,3.21,0,0,0-1-.13h-4.22l-1.15,5.5Z"/><path class="b" d="M129.38,95.83a46.78,46.78,0,0,1-12.06-2.06V87.19q7.91,3.68,13,3.67a9.32,9.32,0,0,0,6.32-2.06A6.79,6.79,0,0,0,139,83.39a7.24,7.24,0,0,0-1.57-4.69,20.78,20.78,0,0,0-5.78-4.3l-3.23-1.87q-6-3.42-8.43-6.44A10.85,10.85,0,0,1,117.57,59a11.41,11.41,0,0,1,3.93-8.91,14.48,14.48,0,0,1,10-3.5,39.92,39.92,0,0,1,11.43,1.81v6.08q-7.41-2.91-11.05-2.92a8.75,8.75,0,0,0-5.7,1.84,5.73,5.73,0,0,0-2.24,4.62,5.94,5.94,0,0,0,1.64,4.15,26.26,26.26,0,0,0,6,4.31L135,68.41c4.06,2.31,6.88,4.48,8.49,6.53a11.59,11.59,0,0,1,2.4,7.37,12.06,12.06,0,0,1-4.51,9.82q-4.52,3.7-12,3.7"/><path class="b" d="M169.54,86.9V78l-2.09-.07a15.66,15.66,0,0,0-8.3,2A5.82,5.82,0,0,0,156,85a5.09,5.09,0,0,0,1.58,3.8,5.29,5.29,0,0,0,3.86,1.55c2.6,0,5.3-1.14,8.11-3.45m.92,3.39q-5.61,5.16-10.8,5.16a9.9,9.9,0,0,1-7.09-2.67A8.93,8.93,0,0,1,149.75,86a9.68,9.68,0,0,1,4.73-8.66q4.74-3,13.57-3h1.49V70.19q0-6-6.14-6a23,23,0,0,0-10.67,3V62.08a31.39,31.39,0,0,1,11.81-2.56c3.83,0,6.67.87,8.49,2.6s2.74,4.42,2.74,8.07V85.76q0,5.35,3.3,5.35a8.79,8.79,0,0,0,1.2-.12l.44,3.45a10.77,10.77,0,0,1-4.68,1c-2.92,0-4.77-1.72-5.57-5.16"/><polygon class="b" points="193.07 94.71 180.28 60.32 186.52 60.32 196.52 87.08 207.07 60.32 212.89 60.32 199.31 94.71 193.07 94.71"/><path class="b" d="M220.85,73.81H236q0-9.59-7.15-9.59t-8,9.59M242.12,93.6a38.21,38.21,0,0,1-10.73,1.9,16.35,16.35,0,0,1-12.39-5q-4.8-5.06-4.8-13.09,0-7.83,4.23-12.83a13.52,13.52,0,0,1,10.81-5A11.45,11.45,0,0,1,238.88,64q3.41,4.44,3.4,12.6l0,1.94H220.56q1.37,12.24,12,12.25a28.72,28.72,0,0,0,9.56-2.09Z"/><path class="b" d="M250.46,94.66V60.28h6.24v6.46q3.71-7.21,10.77-7.22a12.78,12.78,0,0,1,2,.16V65.5a9.18,9.18,0,0,0-2.85-.54q-5.92,0-9.91,7V94.66Z"/><path class="b" d="M267.16,91l-1.64-2.59h-.68v6.33h.71V89.78l1.54,2.45h.14l1.52-2.45v4.93h.72V88.38h-.67Zm-7.11-1.79h1.7v5.53h.72V89.18h1.73v-.8h-4.15Z"/></svg>