<svg xmlns="http://www.w3.org/2000/svg" viewBox="0 0 426.7 118.7"><defs><style>.a{fill:#fff;}</style></defs><title>logo-landscape</title><path class="a" d="M148.8,33.1c0-3.2,0-5.2-.1-6.1.9-.1,4.2-.4,5.2-.4.8,0,1,.4,1,2.6V50.8c0,3.4.1,4.9.1,5.9a39.12,39.12,0,0,1-5.1.4c-.7,0-1-.1-1-1l-.1-23Z"/><path class="a" d="M174.1,43.9c0-2.8-1.5-4.4-3.6-4.4a5.83,5.83,0,0,0-4.1,1.8V55.7c0,.9-.1,1.1-1.1,1.2a37.49,37.49,0,0,1-4.8.3c.1-2.5.1-5.5.1-8.7V40.6c0-1.4-.2-2.2-.9-2.6v-.3a4.31,4.31,0,0,1,3.6-2.4c1.8,0,2.5,1.7,2.8,3.2,2-1.7,4.3-3.2,6.7-3.2,6.1,0,7.2,5,7.2,8.8v6c0,2.5,0,5.1.2,6.8a48.08,48.08,0,0,1-5,.4c-.7,0-1-.3-1-.9l-.1-12.5Z"/><path class="a" d="M184.9,30.3a47.44,47.44,0,0,0-.2-5.1,22.77,22.77,0,0,1,5.1-.9c.7,0,.9.2.9,3.1V50.5c0,2.4.1,4.9.2,6.3-1,.2-4.7.4-5.3.4s-.7-.1-.7-.6Z"/><path class="a" d="M213.6,53.4c0,2.5-1.3,4-4,4a3.83,3.83,0,0,1-3.9-2.7,8.35,8.35,0,0,1-5.7,2.7,5.89,5.89,0,0,1-6-6c0-4.9,5.8-6.3,9.2-7.1.9-.2,1.9-.3,2.5-.5V43a3.52,3.52,0,0,0-3.8-3.6,10,10,0,0,0-4.5,1.4c-2,.6-2.7-1.2-2.7-2.6a16.26,16.26,0,0,1,8.7-3.1c4.3,0,7.8,2.9,7.8,8.1,0,2-.2,5.6-.2,8.7,0,.6.6,1.3,1.7,1.3a2.2,2.2,0,0,0,.8-.1l.1.3Zm-14-2.7a2.57,2.57,0,0,0,2.8,2.6,3.67,3.67,0,0,0,2.8-1.2,2.83,2.83,0,0,0,.4-1.6V47.1c-4.2.4-6,1.9-6,3.6Z"/><path class="a" d="M230.3,43.9c0-2.8-1.5-4.4-3.6-4.4a5.83,5.83,0,0,0-4.1,1.8V55.7c0,.9-.1,1.1-1.1,1.2a37.49,37.49,0,0,1-4.8.3c.1-2.5.1-5.5.1-8.7V40.6c0-1.4-.2-2.2-.9-2.6v-.3a4.31,4.31,0,0,1,3.6-2.4c1.8,0,2.5,1.7,2.8,3.2,2-1.7,4.3-3.2,6.7-3.2,6.1,0,7.2,5,7.2,8.8v6c0,2.5,0,5.1.2,6.8a48.08,48.08,0,0,1-5,.4c-.7,0-1-.3-1-.9l-.1-12.5Z"/><path class="a" d="M254.5,30.2a45.09,45.09,0,0,0-.2-5,23.8,23.8,0,0,1,5.1-.9c.7,0,.9.2.9,3.2v24c0,1.9.6,2.4,2,2.6v.1c-.2,1.4-1.6,3.2-2.9,3.2-2.6,0-3.7-1.2-4.2-2.6-1.8,1.4-4.4,2.6-6.2,2.6-5.6,0-9.5-4.1-9.5-10.5,0-7.1,5.3-11.8,12.1-11.8a6.54,6.54,0,0,1,2.9.5V30.2Zm0,9a7.57,7.57,0,0,0-2.7-.5c-2.9,0-6.2,2.1-6.2,7.4,0,4.5,2.7,6.9,5.9,6.9a5.29,5.29,0,0,0,3-.9Z"/><path class="a" d="M280.7,55.7c0,1-.3,1.2-1.1,1.2-1.3.1-4,.2-4.9.2.1-1.9.1-4.8.1-8.8v-16c0-2.4,0-3.6-.1-4.9a56.9,56.9,0,0,1,8.3-.8c7.6,0,11.4,2.6,11.4,8.7,0,4.6-3.8,6.8-5.8,7.6a30.52,30.52,0,0,1,4.2,6.2,44,44,0,0,0,5,7.5v.2a10.6,10.6,0,0,1-3.9.5,4.78,4.78,0,0,1-4.3-2.2,48,48,0,0,1-4.2-7.3c-1.5-2.7-2.4-3.1-4-3.1h-.9v11Zm0-14.6a16.11,16.11,0,0,0,4.6-.3,5.08,5.08,0,0,0,2.9-5c0-4-2.5-5.7-5.5-5.7a14.08,14.08,0,0,0-2.1.1V41.1Z"/><path class="a" d="M315.7,52.1a5.94,5.94,0,0,1-2.5,4.5,14.09,14.09,0,0,1-4.5.9c-7,0-10.8-3.8-10.8-10.9,0-5.8,3.8-11.4,10.3-11.4,6.1,0,8.4,4.4,8.5,8.3a7.12,7.12,0,0,1-.1,1.6c-.1.7-2.1,1.4-4,1.9a59.07,59.07,0,0,1-8.8.2c.2,4.2,3.3,6,6.6,6a21.75,21.75,0,0,0,5.3-1.1Zm-8-13.6c-1.8,0-3.7,1.7-3.9,5.3,2,.1,5.7.1,6.8,0,.3,0,.6-.5.6-1,.1-2.4-1.1-4.3-3.5-4.3Z"/><path class="a" d="M322.3,35.1c.6,0,1,.4,1.2,1.1,1.1,3.2,3,8.6,4.7,14.3,1.9-5.5,4.1-11.5,5.3-15.4a7.32,7.32,0,0,1,3.6.8c1,.4.8,1.5.1,3.2-2,5-4.8,11.5-6.8,16.6a1.58,1.58,0,0,1-1.4,1.2,18.06,18.06,0,0,1-3.8.5c-1.6-4.7-3.4-9.2-5.5-14.9-1-2.5-1.7-4.5-2.5-6.2a14.64,14.64,0,0,1,5.1-1.2Z"/><path class="a" d="M356.6,52.1a5.94,5.94,0,0,1-2.5,4.5,14.09,14.09,0,0,1-4.5.9c-7,0-10.8-3.8-10.8-10.9,0-5.8,3.8-11.4,10.3-11.4,6.1,0,8.4,4.4,8.5,8.3a7.12,7.12,0,0,1-.1,1.6c-.1.7-2.1,1.4-4,1.9a59.07,59.07,0,0,1-8.8.2c.2,4.2,3.3,6,6.6,6a21.75,21.75,0,0,0,5.3-1.1Zm-8.1-13.6c-1.8,0-3.7,1.7-3.9,5.3,2,.1,5.7.1,6.8,0,.3,0,.6-.5.6-1,.1-2.4-1-4.3-3.5-4.3Z"/><path class="a" d="M374.2,43.9c0-2.8-1.5-4.4-3.6-4.4a5.83,5.83,0,0,0-4.1,1.8V55.7c0,.9-.1,1.1-1.1,1.2a37.49,37.49,0,0,1-4.8.3c.1-2.5.1-5.5.1-8.7V40.6c0-1.4-.2-2.2-.9-2.6v-.3a4.31,4.31,0,0,1,3.6-2.4c1.8,0,2.5,1.7,2.8,3.2,2-1.7,4.3-3.2,6.7-3.2,6.1,0,7.2,5,7.2,8.8v6c0,2.5,0,5.1.2,6.8a48.08,48.08,0,0,1-5,.4c-.7,0-1-.3-1-.9V43.9Z"/><path class="a" d="M385,41.4a51.7,51.7,0,0,0-.2-5.4,27.4,27.4,0,0,1,5.1-.6c.7,0,.9.2.9,3V48.5c0,3.7,2.2,4.4,3.9,4.4a5.45,5.45,0,0,0,3.6-1.5V37.6c0-1.4.1-1.7,1-1.9a47.26,47.26,0,0,1,4.9-.3c0,1-.1,4.5-.1,8.6v7.3c0,1.9.6,2.4,1.9,2.6v.3c-.2,1.4-1.6,3.1-2.9,3.1a3.84,3.84,0,0,1-4.2-3.1,14.9,14.9,0,0,1-3.6,2.4,7.83,7.83,0,0,1-3.1.7c-5.1,0-7.3-3.4-7.3-8.1V41.4Z"/><path class="a" d="M425.7,52.1a5.94,5.94,0,0,1-2.5,4.5,14.09,14.09,0,0,1-4.5.9c-7,0-10.8-3.8-10.8-10.9,0-5.8,3.8-11.4,10.3-11.4,6.1,0,8.4,4.4,8.5,8.3a7.12,7.12,0,0,1-.1,1.6c-.1.7-2.1,1.4-4,1.9a59.07,59.07,0,0,1-8.8.2c.2,4.2,3.3,6,6.6,6a21.75,21.75,0,0,0,5.3-1.1Zm-8.1-13.6c-1.8,0-3.7,1.7-3.9,5.3,2,.1,5.7.1,6.8,0,.3,0,.6-.5.6-1,.1-2.4-1-4.3-3.5-4.3Z"/><path class="a" d="M0,59.5a59.5,59.5,0,1,1,65.3,59.2V85.8c0-7.8,1.2-11.1,4.9-18.2,7.4-13.8,18.3-11.7,17.7-10.3-1.4,3.3-2.4,5.1-2.4,8.8,0,7.2,5.5,11.7,12.3,11.7a13.58,13.58,0,0,0,13.9-13.7c0-10-6.5-16.2-16.2-16.2-12.9,0-26.4,9.8-29.9,20.9h-.4V48.3c-9,0-18,.8-27,.8H27.9v5.5h3.5a6.91,6.91,0,0,1,6.9,6.9v53.7A59.88,59.88,0,0,1,0,59.5M35.6,23.4a15,15,0,1,0,15-15,15,15,0,0,0-15,15"/><path class="a" d="M151.7,79.1h-8.4c-.7,0-1-.3-.7-1a6.93,6.93,0,0,1,1.2-1.9c.6.2,1.6.2,6.5.2h14.8a3.28,3.28,0,0,1-1.5,2.7h-8.1V98.5c0,3,.1,4.5.1,5.4a17.53,17.53,0,0,1-3.3.4c-.5,0-.7-.1-.7-.8l.1-24.4Z"/><path class="a" d="M177.8,100.5a3.53,3.53,0,0,1-1.7,3,10.43,10.43,0,0,1-4.3,1c-6.1,0-9.5-3.7-9.5-9.8,0-5.5,3.3-10.5,9.2-10.5,5,0,7.2,3.7,7.3,7.3a6.6,6.6,0,0,1-.1,1.4c-.1.7-2.2,1.3-3.7,1.5-1.2.1-5.6.2-8.8.1,0,4.5,2.8,7,6.6,7a16.71,16.71,0,0,0,5-1ZM171,86.4c-2.2,0-4.4,2-4.7,5.7,3.2.1,7.1,0,7.9,0a.84.84,0,0,0,.9-.9c.1-2.7-1.3-4.8-4.1-4.8Z"/><path class="a" d="M199.2,79.1h-8.4c-.7,0-1-.3-.7-1a6.93,6.93,0,0,1,1.2-1.9c.6.2,1.6.2,6.5.2h14.8a3.28,3.28,0,0,1-1.5,2.7H203V98.5c0,3,.1,4.5.1,5.4a17.53,17.53,0,0,1-3.3.4c-.5,0-.7-.1-.7-.8l.1-24.4Z"/><path class="a" d="M226.4,101.7c0,1.8-1,2.7-2.8,2.7a3.14,3.14,0,0,1-3.1-2.8,7.81,7.81,0,0,1-5.6,2.8,5,5,0,0,1-5.1-5c0-4.7,6.2-6,8.5-6.6a10.32,10.32,0,0,1,2.2-.4V91.1c0-2.1-1.2-4-3.8-4a8.73,8.73,0,0,0-4.5,1.6c-1.2.5-1.8-.5-1.8-1.6a11.62,11.62,0,0,1,7.2-2.9c4.4,0,6.6,3.2,6.6,7.3,0,1.9-.1,6.1-.1,8.8a1.26,1.26,0,0,0,1.5,1.4Zm-13-2.8a2.66,2.66,0,0,0,2.9,2.6,4.7,4.7,0,0,0,3.8-2.1,2.58,2.58,0,0,0,.3-1.5V94.5c-3.6.7-7,1.9-7,4.4Z"/><path class="a" d="M229.5,85.8a3.39,3.39,0,0,1,2.4-1.6c1.3,0,2.1,1.6,2.1,4.4,1.4-2.9,3.3-4.4,5.3-4.4a3.12,3.12,0,0,1,2,.7,2.1,2.1,0,0,1-.2,1.7,1.71,1.71,0,0,1-1.3,1.4,4.21,4.21,0,0,0-1.8-.4c-1,0-2.4.9-3.3,3a6,6,0,0,0-.5,2.4v9.9c0,.7-.1,1-.8,1.1-1.1.1-2.1.2-3,.2.1-1.6.1-4.2.1-8.1V88.8c0-1.4-.2-2.3-1-2.8Z"/><path class="a" d="M246.6,75.2a2,2,0,0,1,2,2.2,2.07,2.07,0,0,1-2.1,2.2,2,2,0,0,1-2.1-2.2,2.09,2.09,0,0,1,2.2-2.2Zm1.7,27.6c0,.8-.3,1-.9,1.1a19.53,19.53,0,0,1-2.9.2c0-1.8.1-4.4.1-6.9V89.7a46.55,46.55,0,0,0-.2-5,12.42,12.42,0,0,1,3.3-.4c.4,0,.6.2.6,2.7v15.8Z"/><path class="a" d="M270.6,79.1h-8.4c-.7,0-1-.3-.7-1a6.93,6.93,0,0,1,1.2-1.9c.6.2,1.6.2,6.5.2H284a3.28,3.28,0,0,1-1.5,2.7h-8V98.5c0,3,.1,4.5.1,5.4a17.53,17.53,0,0,1-3.3.4c-.5,0-.7-.1-.7-.8Z"/><path class="a" d="M297.8,101.7c0,1.8-1,2.7-2.8,2.7a3.14,3.14,0,0,1-3.1-2.8,7.81,7.81,0,0,1-5.6,2.8,5,5,0,0,1-5.1-5c0-4.7,6.2-6,8.5-6.6a10.32,10.32,0,0,1,2.2-.4V91.1c0-2.1-1.2-4-3.8-4a8.73,8.73,0,0,0-4.5,1.6c-1.2.5-1.8-.5-1.8-1.6a11.62,11.62,0,0,1,7.2-2.9c4.4,0,6.6,3.2,6.6,7.3,0,1.9-.1,6.1-.1,8.8a1.26,1.26,0,0,0,1.5,1.4Zm-13-2.8a2.66,2.66,0,0,0,2.9,2.6,4.7,4.7,0,0,0,3.8-2.1,2.58,2.58,0,0,0,.3-1.5V94.5c-3.6.7-7,1.9-7,4.4Z"/><path class="a" d="M316.9,101.7c0,1.8-1,2.7-2.8,2.7a3.14,3.14,0,0,1-3.1-2.8,7.81,7.81,0,0,1-5.6,2.8,5,5,0,0,1-5.1-5c0-4.7,6.2-6,8.5-6.6a10.32,10.32,0,0,1,2.2-.4V91.1c0-2.1-1.2-4-3.8-4a8.73,8.73,0,0,0-4.5,1.6c-1.2.5-1.8-.5-1.8-1.6a11.62,11.62,0,0,1,7.2-2.9c4.4,0,6.6,3.2,6.6,7.3,0,1.9-.1,6.1-.1,8.8a1.26,1.26,0,0,0,1.5,1.4ZM304,98.9a2.66,2.66,0,0,0,2.9,2.6,4.7,4.7,0,0,0,3.8-2.1,2.58,2.58,0,0,0,.3-1.5V94.5c-3.6.7-7,1.9-7,4.4Z"/><path class="a" d="M324.6,93.7c2.7-2.5,7.7-7.9,9.3-9.6a5.83,5.83,0,0,1,2.2.3c.8.3.8.6-.4,1.8-1.8,2-4.7,4.7-7.1,7.1a126.43,126.43,0,0,0,9.1,10.3v.1a6.49,6.49,0,0,1-2.7.5,3.32,3.32,0,0,1-2.7-1.4,115.33,115.33,0,0,1-7.7-8.8v8.8c0,.9-.3,1.1-1.1,1.2a21.85,21.85,0,0,1-2.8.1c.1-1.8.1-4.4.1-8.1V79.5a44.22,44.22,0,0,0-.2-4.9,9.6,9.6,0,0,1,3.3-.6c.4,0,.6.2.6,2.9V93.7Z"/><path class="a" d="M354.1,100.5a3.53,3.53,0,0,1-1.7,3,10.43,10.43,0,0,1-4.3,1c-6.1,0-9.5-3.7-9.5-9.8,0-5.5,3.3-10.5,9.2-10.5,5,0,7.2,3.7,7.3,7.3a6.6,6.6,0,0,1-.1,1.4c-.1.7-2.2,1.3-3.7,1.5-1.2.1-5.6.2-8.8.1,0,4.5,2.8,7,6.6,7a16,16,0,0,0,5-1Zm-6.8-14.1c-2.2,0-4.4,2-4.7,5.7,3.2.1,7.1,0,7.9,0a.84.84,0,0,0,.9-.9c.1-2.7-1.3-4.8-4.1-4.8Z"/></svg>